<svg width="118" height="27" viewBox="0 0 118 27" fill="none" xmlns="http://www.w3.org/2000/svg">
<path d="M10.032 1.4C11.8427 1.4 13.42 1.69867 14.764 2.296C16.108 2.89333 17.144 3.752 17.872 4.872C18.6 5.992 18.964 7.29867 18.964 8.792C18.964 10.2853 18.6 11.592 17.872 12.712C17.144 13.832 16.108 14.6907 14.764 15.288C13.42 15.8853 11.8427 16.184 10.032 16.184H7.204V21H0.596V1.4H10.032ZM9.612 11.088C10.508 11.088 11.18 10.892 11.628 10.5C12.076 10.0893 12.3 9.52 12.3 8.792C12.3 8.064 12.076 7.504 11.628 7.112C11.18 6.70133 10.508 6.496 9.612 6.496H7.204V11.088H9.612ZM31.5406 21.448C29.4686 21.448 27.6019 21.0187 25.9406 20.16C24.2793 19.2827 22.9726 18.0693 22.0206 16.52C21.0873 14.952 20.6206 13.1787 20.6206 11.2C20.6206 9.22133 21.0873 7.45733 22.0206 5.908C22.9726 4.34 24.2793 3.12667 25.9406 2.268C27.6019 1.39067 29.4686 0.951999 31.5406 0.951999C33.4446 0.951999 35.1433 1.288 36.6366 1.96C38.1299 2.632 39.3619 3.60267 40.3326 4.872L36.1606 8.596C34.9473 7.06533 33.5193 6.3 31.8766 6.3C30.4953 6.3 29.3846 6.748 28.5446 7.644C27.7046 8.52133 27.2846 9.70667 27.2846 11.2C27.2846 12.6933 27.7046 13.888 28.5446 14.784C29.3846 15.6613 30.4953 16.1 31.8766 16.1C33.5193 16.1 34.9473 15.3347 36.1606 13.804L40.3326 17.528C39.3619 18.7973 38.1299 19.768 36.6366 20.44C35.1433 21.112 33.4446 21.448 31.5406 21.448Z" fill="#3CA1FF"/>
<path d="M45.0879 7.99805C46.209 6.62174 47.6673 5.93359 49.4629 5.93359C52.5892 5.93359 54.166 7.69727 54.1934 11.2246V21H51.6641V11.2109C51.6549 10.1445 51.4089 9.35612 50.9258 8.8457C50.4518 8.33529 49.709 8.08008 48.6973 8.08008C47.877 8.08008 47.1569 8.29883 46.5371 8.73633C45.9173 9.17383 45.4342 9.74805 45.0879 10.459V21H42.5586V0H45.0879V7.99805ZM64.1191 21.2734C62.1139 21.2734 60.4824 20.6172 59.2246 19.3047C57.9668 17.9831 57.3379 16.2194 57.3379 14.0137V13.5488C57.3379 12.0814 57.6159 10.7734 58.1719 9.625C58.737 8.46745 59.5208 7.5651 60.5234 6.91797C61.5352 6.26172 62.6289 5.93359 63.8047 5.93359C65.7279 5.93359 67.2227 6.56706 68.2891 7.83398C69.3555 9.10091 69.8887 10.9147 69.8887 13.2754V14.3281H59.8672C59.9036 15.7865 60.3275 16.9668 61.1387 17.8691C61.959 18.7624 62.998 19.209 64.2559 19.209C65.1491 19.209 65.9056 19.0267 66.5254 18.6621C67.1452 18.2975 67.6875 17.8145 68.1523 17.2129L69.6973 18.416C68.4577 20.321 66.5983 21.2734 64.1191 21.2734ZM63.8047 8.01172C62.7839 8.01172 61.9271 8.38542 61.2344 9.13281C60.5417 9.87109 60.1133 10.9102 59.9492 12.25H67.3594V12.0586C67.2865 10.7734 66.9401 9.77995 66.3203 9.07812C65.7005 8.36719 64.862 8.01172 63.8047 8.01172ZM75.5762 21H73.0469V0H75.5762V21ZM92.1328 13.7676C92.1328 16.0189 91.6178 17.8327 90.5879 19.209C89.5579 20.5853 88.1634 21.2734 86.4043 21.2734C84.6087 21.2734 83.196 20.7038 82.166 19.5645V26.6875H79.6367V6.20703H81.9473L82.0703 7.84766C83.1003 6.57161 84.5312 5.93359 86.3633 5.93359C88.1406 5.93359 89.5443 6.60352 90.5742 7.94336C91.6133 9.2832 92.1328 11.1471 92.1328 13.5352V13.7676ZM89.6035 13.4805C89.6035 11.8125 89.248 10.4954 88.5371 9.5293C87.8262 8.56315 86.8509 8.08008 85.6113 8.08008C84.0801 8.08008 82.9316 8.75911 82.166 10.1172V17.1855C82.9225 18.5345 84.0801 19.209 85.6387 19.209C86.8509 19.209 87.8125 18.7305 88.5234 17.7734C89.2435 16.8073 89.6035 15.3763 89.6035 13.4805ZM101.498 21.2734C99.4928 21.2734 97.8613 20.6172 96.6035 19.3047C95.3457 17.9831 94.7168 16.2194 94.7168 14.0137V13.5488C94.7168 12.0814 94.9948 10.7734 95.5508 9.625C96.1159 8.46745 96.8997 7.5651 97.9023 6.91797C98.9141 6.26172 100.008 5.93359 101.184 5.93359C103.107 5.93359 104.602 6.56706 105.668 7.83398C106.734 9.10091 107.268 10.9147 107.268 13.2754V14.3281H97.2461C97.2826 15.7865 97.7064 16.9668 98.5176 17.8691C99.3379 18.7624 100.377 19.209 101.635 19.209C102.528 19.209 103.285 19.0267 103.904 18.6621C104.524 18.2975 105.066 17.8145 105.531 17.2129L107.076 18.416C105.837 20.321 103.977 21.2734 101.498 21.2734ZM101.184 8.01172C100.163 8.01172 99.306 8.38542 98.6133 9.13281C97.9206 9.87109 97.4922 10.9102 97.3281 12.25H104.738V12.0586C104.665 10.7734 104.319 9.77995 103.699 9.07812C103.079 8.36719 102.241 8.01172 101.184 8.01172ZM117.357 8.47656C116.975 8.41276 116.56 8.38086 116.113 8.38086C114.454 8.38086 113.329 9.08724 112.736 10.5V21H110.207V6.20703H112.668L112.709 7.91602C113.538 6.5944 114.714 5.93359 116.236 5.93359C116.729 5.93359 117.102 5.9974 117.357 6.125V8.47656Z" fill="white"/>
</svg>
