<svg width="268" height="61" viewBox="0 0 268 61" fill="none" xmlns="http://www.w3.org/2000/svg">
<path d="M22.216 3.2C26.3547 3.2 29.96 3.88266 33.032 5.248C36.104 6.61333 38.472 8.576 40.136 11.136C41.8 13.696 42.632 16.6827 42.632 20.096C42.632 23.5093 41.8 26.496 40.136 29.056C38.472 31.616 36.104 33.5787 33.032 34.944C29.96 36.3093 26.3547 36.992 22.216 36.992H15.752V48H0.648V3.2H22.216ZM21.256 25.344C23.304 25.344 24.84 24.896 25.864 24C26.888 23.0613 27.4 21.76 27.4 20.096C27.4 18.432 26.888 17.152 25.864 16.256C24.84 15.3173 23.304 14.848 21.256 14.848H15.752V25.344H21.256ZM71.3785 49.024C66.6425 49.024 62.3758 48.0427 58.5785 46.08C54.7812 44.0747 51.7945 41.3013 49.6185 37.76C47.4852 34.176 46.4185 30.1227 46.4185 25.6C46.4185 21.0773 47.4852 17.0453 49.6185 13.504C51.7945 9.92 54.7812 7.14666 58.5785 5.184C62.3758 3.17867 66.6425 2.176 71.3785 2.176C75.7305 2.176 79.6132 2.944 83.0265 4.48C86.4398 6.016 89.2558 8.23466 91.4745 11.136L81.9385 19.648C79.1652 16.1493 75.9012 14.4 72.1465 14.4C68.9892 14.4 66.4505 15.424 64.5305 17.472C62.6105 19.4773 61.6505 22.1867 61.6505 25.6C61.6505 29.0133 62.6105 31.744 64.5305 33.792C66.4505 35.7973 68.9892 36.8 72.1465 36.8C75.9012 36.8 79.1652 35.0507 81.9385 31.552L91.4745 40.064C89.2558 42.9653 86.4398 45.184 83.0265 46.72C79.6132 48.256 75.7305 49.024 71.3785 49.024Z" fill="#3CA1FF"/>
<path d="M102.344 18.2812C104.906 15.1354 108.24 13.5625 112.344 13.5625C119.49 13.5625 123.094 17.5938 123.156 25.6562V48H117.375V25.625C117.354 23.1875 116.792 21.3854 115.688 20.2188C114.604 19.0521 112.906 18.4688 110.594 18.4688C108.719 18.4688 107.073 18.9688 105.656 19.9688C104.24 20.9688 103.135 22.2812 102.344 23.9062V48H96.5625V0H102.344V18.2812ZM145.844 48.625C141.26 48.625 137.531 47.125 134.656 44.125C131.781 41.1042 130.344 37.0729 130.344 32.0312V30.9688C130.344 27.6146 130.979 24.625 132.25 22C133.542 19.3542 135.333 17.2917 137.625 15.8125C139.938 14.3125 142.438 13.5625 145.125 13.5625C149.521 13.5625 152.938 15.0104 155.375 17.9062C157.812 20.8021 159.031 24.9479 159.031 30.3438V32.75H136.125C136.208 36.0833 137.177 38.7812 139.031 40.8438C140.906 42.8854 143.281 43.9062 146.156 43.9062C148.198 43.9062 149.927 43.4896 151.344 42.6562C152.76 41.8229 154 40.7188 155.062 39.3438L158.594 42.0938C155.76 46.4479 151.51 48.625 145.844 48.625ZM145.125 18.3125C142.792 18.3125 140.833 19.1667 139.25 20.875C137.667 22.5625 136.688 24.9375 136.312 28H153.25V27.5625C153.083 24.625 152.292 22.3542 150.875 20.75C149.458 19.125 147.542 18.3125 145.125 18.3125ZM172.031 48H166.25V0H172.031V48ZM209.875 31.4688C209.875 36.6146 208.698 40.7604 206.344 43.9062C203.99 47.0521 200.802 48.625 196.781 48.625C192.677 48.625 189.448 47.3229 187.094 44.7188V61H181.312V14.1875H186.594L186.875 17.9375C189.229 15.0208 192.5 13.5625 196.688 13.5625C200.75 13.5625 203.958 15.0938 206.312 18.1562C208.688 21.2188 209.875 25.4792 209.875 30.9375V31.4688ZM204.094 30.8125C204.094 27 203.281 23.9896 201.656 21.7812C200.031 19.5729 197.802 18.4688 194.969 18.4688C191.469 18.4688 188.844 20.0208 187.094 23.125V39.2812C188.823 42.3646 191.469 43.9062 195.031 43.9062C197.802 43.9062 200 42.8125 201.625 40.625C203.271 38.4167 204.094 35.1458 204.094 30.8125ZM231.281 48.625C226.698 48.625 222.969 47.125 220.094 44.125C217.219 41.1042 215.781 37.0729 215.781 32.0312V30.9688C215.781 27.6146 216.417 24.625 217.688 22C218.979 19.3542 220.771 17.2917 223.062 15.8125C225.375 14.3125 227.875 13.5625 230.562 13.5625C234.958 13.5625 238.375 15.0104 240.812 17.9062C243.25 20.8021 244.469 24.9479 244.469 30.3438V32.75H221.562C221.646 36.0833 222.615 38.7812 224.469 40.8438C226.344 42.8854 228.719 43.9062 231.594 43.9062C233.635 43.9062 235.365 43.4896 236.781 42.6562C238.198 41.8229 239.438 40.7188 240.5 39.3438L244.031 42.0938C241.198 46.4479 236.948 48.625 231.281 48.625ZM230.562 18.3125C228.229 18.3125 226.271 19.1667 224.688 20.875C223.104 22.5625 222.125 24.9375 221.75 28H238.688V27.5625C238.521 24.625 237.729 22.3542 236.312 20.75C234.896 19.125 232.979 18.3125 230.562 18.3125ZM267.531 19.375C266.656 19.2292 265.708 19.1562 264.688 19.1562C260.896 19.1562 258.323 20.7708 256.969 24V48H251.188V14.1875H256.812L256.906 18.0938C258.802 15.0729 261.49 13.5625 264.969 13.5625C266.094 13.5625 266.948 13.7083 267.531 14V19.375Z" fill="white"/>
</svg>
